<?xml version="1.0" standalone="no"?><!DOCTYPE svg PUBLIC "-//W3C//DTD SVG 1.1//EN" "http://www.w3.org/Graphics/SVG/1.1/DTD/svg11.dtd"><svg t="1615621113567" class="icon" viewBox="0 0 3562 1024" version="1.1" xmlns="http://www.w3.org/2000/svg" p-id="2338" xmlns:xlink="http://www.w3.org/1999/xlink" width="695.703125" height="200"><defs><style type="text/css"></style></defs><path d="M1788.51-292.398l710.979 402.154v804.49l-710.979 402.154-710.979-402.154v-804.49l710.979-402.154z" fill="#FFFFFF" p-id="2339"></path><path d="M2372.54 886.503l-560.517 317.092v-246.914l349.242-192.166 211.273 121.986zM2410.936 851.781v-663.028l-205.026 118.495v426.221l205.026 118.311zM1202.273 886.503l560.517 317.092v-246.914l-349.426-192.166-211.087 121.986zM1163.875 851.781v-663.029l205.026 118.495v426.221l-205.026 118.311zM1187.941 145.762l574.846-325.174v238.647l-371.29 204.292-203.557-117.76zM2386.87 145.762l-574.846-325.174v238.647l371.29 204.107 203.557-117.578z" fill="#8ED6FB" p-id="2340"></path><path d="M1762.787 900.466l-344.651-189.595v-375.331l344.651 198.964v365.962zM1812.024 900.466l344.651-189.41v-375.515l-344.651 198.964v365.962zM1441.472 292.183l345.937-190.145 345.937 190.145-345.937 199.698-345.937-199.698z" fill="#1C78C0" p-id="2341"></path><path d="M3216.53 766.355h151.564l154.503-514.77h-147.709l-91.491 365.228-97.552-365.228h-127.867l-98.47 365.228-90.571-365.228h-147.709l153.586 514.77h151.564l95.533-329.769 94.613 329.769zM3530.498 510.439c0 154.503 105.269 268.773 270.797 268.773 128.050 0 196.942-76.795 216.599-113.169l-89.652-67.975c-14.698 21.678-55.116 63.013-125.111 63.013-75.874 0-130.989-49.237-133.929-118.129h362.471c0.918-9.92 0.918-19.658 0.918-29.579 0-168.283-90.571-274.655-250.038-274.655-146.788 0-252.059 116.108-252.059 271.715zM3673.246 454.22c5.878-58.971 47.212-104.35 111.331-104.35 62.096 0 107.291 41.337 110.229 104.35h-221.562zM4083.85 766.355h128.050v-53.092c13.779 16.718 65.037 65.955 152.667 65.955 147.709 0 252.059-111.149 252.059-269.695 0-159.467-96.451-270.612-244.158-270.612-88.551 0-139.809 49.237-152.667 66.873v-251.138h-135.766v711.713h-0.183zM4215.756 510.439c0-96.451 57.134-151.564 131.906-151.564 78.813 0 131.906 62.096 131.906 151.564 0 91.491-55.116 148.626-131.906 148.626-82.671 0-131.906-67.054-131.906-148.626zM4669.533 950.437h135.766v-237.361c12.859 16.718 63.933 65.955 152.667 65.955 147.709 0 244.158-111.149 244.158-270.612 0-157.443-104.35-269.695-252.059-269.695-87.633 0-138.89 49.237-152.667 66.873v-54.197h-128.050v699.037h0.183zM4801.441 507.499c0-81.753 49.237-148.626 131.906-148.626 76.795 0 131.906 57.134 131.906 148.626 0 89.652-53.092 151.564-131.906 151.564-74.772 0-131.906-55.116-131.906-151.564zM5226.743 606.889c0 108.209 88.551 172.324 192.9 172.324 59.156 0 98.47-17.635 125.111-46.298l8.818 33.436h120.15v-325.913c0-115.189-49.237-201.721-214.578-201.721-78.813 0-156.526 29.579-202.82 60.993l51.258 92.591c38.396-19.658 85.612-36.374 136.869-36.374 60.075 0 93.513 30.495 93.513 75.874v33.436c-18.738-12.859-59.156-28.475-111.331-28.475-120.15-0.183-199.883 68.709-199.883 170.121zM5362.509 602.846c0-42.255 36.374-71.833 88.551-71.833s89.652 26.639 89.652 71.833c0 43.357-37.477 70.914-88.551 70.914s-89.652-28.475-89.652-70.914zM6003.491 659.061c-85.612 0-146.605-62.096-146.605-149.545 0-82.671 54.197-150.646 141.827-150.646 58.054 0 97.552 28.475 120.15 49.237l38.396-114.272c-33.436-25.537-86.715-55.116-162.405-55.116-156.526 0-273.737 115.189-273.737 271.715s114.272 268.773 274.655 268.773c74.772 0 130.989-31.417 160.382-55.116l-36.374-111.149c-22.781 18.555-64.117 46.113-116.293 46.113zM6207.232 766.355h135.766v-265.835l172.324 265.835h159.467l-194.922-281.635 181.146-233.315h-152.667l-165.345 216.599v-413.36h-135.766v711.713z" fill="#F5FAFA" p-id="2342"></path></svg>